<?xml version="1.0" encoding="UTF-8"?>
<!DOCTYPE svg PUBLIC "-//W3C//DTD SVG 1.1//EN" "http://www.w3.org/Graphics/SVG/1.1/DTD/svg11.dtd">
<svg xmlns="http://www.w3.org/2000/svg" version="1.1" width="1024px" height="1024px" style="shape-rendering:geometricPrecision; text-rendering:geometricPrecision; image-rendering:optimizeQuality; fill-rule:evenodd; clip-rule:evenodd" xmlns:xlink="http://www.w3.org/1999/xlink">
<g><path style="opacity:1" fill="#84c7ef" d="M 737.5,90.5 C 576.5,91.8333 415.5,91.8333 254.5,90.5C 415.524,89.2019 576.524,89.2019 737.5,90.5 Z"/></g>
<g><path style="opacity:1" fill="#71c4ee" d="M 931.5,227.5 C 930.829,255.569 930.163,283.736 929.5,312C 929.355,428.131 929.521,544.631 930,661.5C 930.167,556.333 930.667,451.333 931.5,346.5C 931.225,478.502 931.559,610.502 932.5,742.5C 933.559,771.236 930.726,799.569 924,827.5C 908.807,876.026 876.974,907.86 828.5,923C 813.132,927.339 797.465,929.506 781.5,929.5C 663.334,928.51 545.001,927.844 426.5,927.5C 364.66,927.365 302.993,928.031 241.5,929.5C 174.68,928.535 128.18,897.535 102,836.5C 95.5063,817.364 91.8396,797.698 91,777.5C 91.4955,596.3 91.4955,414.634 91,232.5C 90.7046,189.619 105.871,153.453 136.5,124C 161.02,103.597 189.353,92.5971 221.5,91C 232.495,90.5002 243.495,90.3335 254.5,90.5C 415.5,91.8333 576.5,91.8333 737.5,90.5C 740.649,90.5084 743.816,90.1751 747,89.5C 765.093,90.3264 783.26,90.8264 801.5,91C 842.503,93.2534 876.336,109.753 903,140.5C 922.387,166.163 931.887,195.163 931.5,227.5 Z"/></g>
<g><path style="opacity:1" fill="#17557d" d="M 675.5,187.5 C 676.638,202.892 670.638,214.558 657.5,222.5C 656.501,234.148 656.168,245.814 656.5,257.5C 666.167,257.5 675.833,257.5 685.5,257.5C 710.218,259.796 734.218,265.63 757.5,275C 792.713,292.214 817.547,319.047 832,355.5C 833.869,361.715 835.203,368.048 836,374.5C 858.387,379.221 872.72,392.555 879,414.5C 879.951,434.552 879.618,454.552 878,474.5C 872.894,487.272 864.061,496.439 851.5,502C 847.312,503.631 842.979,504.464 838.5,504.5C 832.74,542.195 815.406,573.361 786.5,598C 777.871,605.648 768.538,612.315 758.5,618C 797.195,631.405 827.028,655.572 848,690.5C 850.212,702.096 845.546,708.762 834,710.5C 830.823,710.109 827.99,708.943 825.5,707C 801.683,672.183 769.35,649.516 728.5,639C 718.236,637.174 707.903,636.007 697.5,635.5C 655.175,634.519 612.842,633.852 570.5,633.5C 559.312,631.184 548.312,627.851 537.5,623.5C 499.323,633.658 469.156,654.991 447,687.5C 420.758,673.379 394.091,660.045 367,647.5C 366.333,621.5 366.333,595.5 367,569.5C 374.238,537.594 393.738,517.427 425.5,509C 431.697,507.114 438.03,506.28 444.5,506.5C 444.5,504.167 444.5,501.833 444.5,499.5C 421.632,494.797 409.132,480.797 407,457.5C 406.333,444.5 406.333,431.5 407,418.5C 408.769,403.778 415.936,392.612 428.5,385C 434.268,382.301 440.102,379.801 446,377.5C 451.148,344.029 466.981,316.863 493.5,296C 523.054,273.207 556.387,260.373 593.5,257.5C 604.5,257.5 615.5,257.5 626.5,257.5C 626.828,245.655 626.495,233.988 625.5,222.5C 607.092,210.316 602.925,194.316 613,174.5C 624.667,158.949 639.5,155.116 657.5,163C 666.809,168.799 672.809,176.965 675.5,187.5 Z"/></g>
<g><path style="opacity:1" fill="#84dcfb" d="M 685.5,257.5 C 675.833,257.5 666.167,257.5 656.5,257.5C 656.168,245.814 656.501,234.148 657.5,222.5C 670.638,214.558 676.638,202.892 675.5,187.5C 678.323,202.569 672.656,214.569 658.5,223.5C 657.501,234.48 657.168,245.48 657.5,256.5C 668.88,256.152 678.213,256.486 685.5,257.5 Z"/></g>
<g><path style="opacity:1" fill="#89e1fe" d="M 625.5,222.5 C 626.495,233.988 626.828,245.655 626.5,257.5C 615.5,257.5 604.5,257.5 593.5,257.5C 603.987,256.506 614.654,256.172 625.5,256.5C 625.461,244.86 625.461,233.526 625.5,222.5 Z"/></g>
<g><path style="opacity:1" fill="#fafafb" d="M 808.5,384.5 C 808.5,387.167 808.5,389.833 808.5,392.5C 808.667,428.502 808.5,464.502 808,500.5C 803.324,541.704 782.157,570.871 744.5,588C 735.296,591.327 725.963,593.494 716.5,594.5C 662.817,594.807 609.15,594.474 555.5,593.5C 538.627,589.397 523.294,582.064 509.5,571.5C 491.389,554.617 480.056,533.95 475.5,509.5C 475.768,507.901 475.434,506.568 474.5,505.5C 474.5,464.833 474.5,424.167 474.5,383.5C 482.362,341.79 506.362,313.623 546.5,299C 550.739,297.587 555.072,296.587 559.5,296C 613.5,295.333 667.5,295.333 721.5,296C 761.953,303.154 789.453,325.988 804,364.5C 805.621,371.271 807.121,377.938 808.5,384.5 Z"/></g>
<g><path style="opacity:1" fill="#16547d" d="M 207.5,308.5 C 235.148,306.89 252.981,319.223 261,345.5C 263.719,374.573 250.885,392.406 222.5,399C 194.318,400.827 176.818,387.994 170,360.5C 169.052,333.375 181.552,316.042 207.5,308.5 Z"/></g>
<g><path style="opacity:1" fill="#16557d" d="M 323.5,346.5 C 351.955,345.622 370.455,358.622 379,385.5C 382.239,407.508 374.739,424.675 356.5,437C 329.324,450.328 306.491,445.162 288,421.5C 274.833,395.35 279.666,373.183 302.5,355C 309.187,351.057 316.187,348.224 323.5,346.5 Z"/></g>
<g><path style="opacity:1" fill="#16547d" d="M 734.5,382.5 C 738.576,386.302 741.409,390.969 743,396.5C 746.056,411.792 742.223,424.959 731.5,436C 710.437,448.693 693.604,444.526 681,423.5C 676.374,412.14 676.374,400.807 681,389.5C 681.949,387.907 683.115,386.574 684.5,385.5C 695.005,372.945 708.005,369.445 723.5,375C 727.34,377.356 731.006,379.856 734.5,382.5 Z"/></g>
<g><path style="opacity:1" fill="#16547d" d="M 566.5,370.5 C 586.568,369.448 599.735,378.448 606,397.5C 608.856,413.267 604.356,426.434 592.5,437C 573.443,448.111 557.61,444.611 545,426.5C 533.622,400.442 540.789,381.775 566.5,370.5 Z"/></g>
<g><path style="opacity:1" fill="#113f6e" d="M 734.5,382.5 C 731.006,379.856 727.34,377.356 723.5,375C 708.005,369.445 695.005,372.945 684.5,385.5C 693.918,371.861 706.585,367.694 722.5,373C 727.62,374.975 731.62,378.142 734.5,382.5 Z"/></g>
<g><path style="opacity:1" fill="#6ac0ed" d="M 931.5,227.5 C 932.265,267.127 932.265,306.793 931.5,346.5C 930.667,451.333 930.167,556.333 930,661.5C 929.521,544.631 929.355,428.131 929.5,312C 930.163,283.736 930.829,255.569 931.5,227.5 Z"/></g>
<g><path style="opacity:1" fill="#16557d" d="M 203.5,411.5 C 237.523,408.518 264.523,420.685 284.5,448C 284.241,449.261 283.574,450.261 282.5,451C 241.435,474.973 224.269,510.807 231,558.5C 230.439,559.022 229.772,559.355 229,559.5C 199.531,546.099 170.198,532.432 141,518.5C 140.333,501.833 140.333,485.167 141,468.5C 150.27,436.788 171.103,417.788 203.5,411.5 Z"/></g>
<g><path style="opacity:1" fill="#003c6a" d="M 808.5,392.5 C 808.5,389.833 808.5,387.167 808.5,384.5C 809.51,385.321 810.01,387.654 810,391.5C 810.667,426.167 810.667,460.833 810,495.5C 809.832,460.998 809.332,426.664 808.5,392.5 Z"/></g>
<g><path style="opacity:1" fill="#134975" d="M 474.5,383.5 C 474.5,424.167 474.5,464.833 474.5,505.5C 474.631,506.239 474.464,506.906 474,507.5C 473.667,505.5 473.333,503.5 473,501.5C 472.333,463.833 472.333,426.167 473,388.5C 473.091,385.984 473.591,384.318 474.5,383.5 Z"/></g>
<g><path style="opacity:1" fill="#16557d" d="M 316.5,456.5 C 348.553,454.004 375.053,464.671 396,488.5C 398.03,491.226 399.53,494.226 400.5,497.5C 400.124,499.383 399.124,500.883 397.5,502C 370.479,517.372 354.979,540.539 351,571.5C 350.667,589.167 350.333,606.833 350,624.5C 349.692,625.308 349.192,625.975 348.5,626.5C 314.763,609.216 281.263,591.549 248,573.5C 246.734,557.516 246.4,541.516 247,525.5C 252.533,494.272 270.033,472.772 299.5,461C 305.253,459.314 310.919,457.814 316.5,456.5 Z"/></g>
<g><path style="opacity:1" fill="#16537c" d="M 568.5,488.5 C 574.275,487.775 579.608,488.941 584.5,492C 598.037,505.301 614.37,512.634 633.5,514C 660.369,515.378 683.702,507.045 703.5,489C 713.794,486.635 719.794,490.635 721.5,501C 720.322,507.355 717.322,512.689 712.5,517C 697.562,528.965 680.562,536.299 661.5,539C 628.987,544.6 599.32,537.933 572.5,519C 569.667,516.167 566.833,513.333 564,510.5C 558.336,501.622 559.836,494.288 568.5,488.5 Z"/></g>
<g><path style="opacity:1" fill="#13416f" d="M 475.5,509.5 C 480.056,533.95 491.389,554.617 509.5,571.5C 490.666,556.103 478.999,536.27 474.5,512C 474.528,510.93 474.861,510.097 475.5,509.5 Z"/></g>
<g><path style="opacity:1" fill="#00265b" d="M 555.5,593.5 C 609.15,594.474 662.817,594.807 716.5,594.5C 692.863,595.181 667.196,595.514 639.5,595.5C 612.833,595.333 586.167,595.167 559.5,595C 557.264,594.921 555.93,594.421 555.5,593.5 Z"/></g>
<g><path style="opacity:1" fill="#7fd5f7" d="M 570.5,633.5 C 612.842,633.852 655.175,634.519 697.5,635.5C 691.843,636.166 686.01,636.499 680,636.5C 642.749,636.153 606.249,635.153 570.5,633.5 Z"/></g>
<g><path style="opacity:1" fill="#68beec" d="M 781.5,929.5 C 601.488,929.567 421.488,929.567 241.5,929.5C 302.993,928.031 364.66,927.365 426.5,927.5C 545.001,927.844 663.334,928.51 781.5,929.5 Z"/></g>
</svg>
